<?xml version="1.0" standalone="no"?><!DOCTYPE svg PUBLIC "-//W3C//DTD SVG 1.1//EN" "http://www.w3.org/Graphics/SVG/1.1/DTD/svg11.dtd"><svg class="icon" width="200px" height="200.00px" viewBox="0 0 1024 1024" version="1.1" xmlns="http://www.w3.org/2000/svg"><path d="M512 421.12a16 16 0 0 0-16 16v128a16 16 0 0 0 32 0v-128A16 16 0 0 0 512 421.12zM480 393.6h64a16 16 0 0 0 0-32h-16V256a16 16 0 0 0-32 0v105.6H480a16 16 0 0 0 0 32zM704 448a16 16 0 0 0-16 16v102.4a16 16 0 1 0 32 0V464.64A16 16 0 0 0 704 448zM672 419.84h64a16 16 0 0 0 0-32h-14.72V256a16 16 0 0 0-32 0v128h-17.28a16 16 0 0 0 0 32zM288 453.12h64a16 16 0 0 0 0-32h-16V256a16 16 0 0 0-32 0v165.12H288a16 16 0 0 0 0 32zM320 485.76a16 16 0 0 0-16 16v64a16 16 0 0 0 32 0v-64A16 16 0 0 0 320 485.76z" fill="#dbdbdb" /><path d="M936.96 72.96H87.04a32 32 0 0 0-32 32v614.4a32 32 0 0 0 32 32h849.92a32 32 0 0 0 32-32v-614.4a32 32 0 0 0-32-32z m-32 614.4H119.04v-550.4h785.92zM352 880h320a32 32 0 0 0 0-64h-320a32 32 0 0 0 0 64z" fill="#dbdbdb" /></svg>